<?xml version="1.0" encoding="UTF-8" standalone="no"?>
<!-- Created with Inkscape (http://www.inkscape.org/) -->

<svg
   width="33.869263mm"
   height="33.849579mm"
   viewBox="0 0 33.869263 33.849579"
   version="1.1"
   id="svg5"
   xml:space="preserve"
   xmlns:inkscape="http://www.inkscape.org/namespaces/inkscape"
   xmlns:sodipodi="http://sodipodi.sourceforge.net/DTD/sodipodi-0.dtd"
   xmlns="http://www.w3.org/2000/svg"
   xmlns:svg="http://www.w3.org/2000/svg"><sodipodi:namedview
     id="namedview7"
     pagecolor="#ffffff"
     bordercolor="#666666"
     borderopacity="1.0"
     inkscape:showpageshadow="2"
     inkscape:pageopacity="0.0"
     inkscape:pagecheckerboard="0"
     inkscape:deskcolor="#d1d1d1"
     inkscape:document-units="mm"
     showgrid="false" /><defs
     id="defs2" /><g
     inkscape:label="Layer 1"
     inkscape:groupmode="layer"
     id="layer1"
     transform="translate(-86.757586,-94.255902)"><path
       style="fill:#000000;stroke-width:0.264583"
       d="M 94.580392,127.52112 C 94.288142,127.10388 94.168512,126.29698 94.168512,124.743 V 122.55291 H 95.756012 97.343512 V 125.05715 C 97.343512,127.26222 97.282382,127.5941 96.831742,127.83527 95.985052,128.28841 95.023882,128.15429 94.580392,127.52112 Z M 99.923202,127.82339 C 99.533922,127.59665 99.460182,127.15551 99.460182,125.05331 V 122.55291 H 101.04768 102.63518 V 124.743 C 102.63518,127.26655 102.24743,128.11409 101.09882,128.10112 100.70689,128.09669 100.17786,127.97172 99.923202,127.82339 Z M 104.89914,127.52112 C 104.60689,127.10388 104.48726,126.29698 104.48726,124.743 V 122.55291 H 106.07476 107.66226 V 124.91526 C 107.66226,126.71008 107.56238,127.3775 107.24649,127.69339 106.62936,128.31052 105.38826,128.21944 104.89914,127.52112 Z M 109.95223,127.62531 C 109.61564,127.25338 109.51435,126.61073 109.51435,124.84719 V 122.55291 H 111.10185 112.68935 V 124.89316 C 112.68935,126.82433 112.60477,127.30994 112.20549,127.67128 111.56648,128.24958 110.49745,128.22777 109.95223,127.62531 Z M 94.433102,111.17583 V 101.91542 H 103.56122 112.68935 V 111.17583 120.43625 H 103.56122 94.433102 Z M 102.89976,116.33521 V 115.14458 H 100.51851 98.137262 V 113.68937 112.23416 H 100.25393 102.3706 V 111.04354 109.85291 H 100.25393 98.137262 V 108.53 107.20708 H 100.51851 102.89976 V 106.01646 104.82583 H 99.063312 95.226852 V 111.17583 117.52583 H 99.063312 102.89976 Z M 112.16018,116.33521 V 115.14458 H 110.04351 107.92685 V 109.98521 104.82583 H 106.47164 105.01643 V 111.17583 117.52583 H 108.58831 112.16018 Z M 87.223202,119.88589 C 86.926172,119.71288 86.760182,119.29432 86.760182,118.71831 86.760182,117.36433 87.479052,116.99666 90.126342,116.99666 H 92.316432 V 118.58416 120.17166 L 90.001332,120.16362 C 88.728022,120.15919 87.477862,120.03421 87.223202,119.88589 Z M 115.0706,118.58416 V 116.99666 H 117.26068 C 119.88249,116.99666 120.62685,117.36858 120.62685,118.67854 120.62685,119.99903 120.26892,120.17166 117.53122,120.17166 H 115.0706 Z M 87.175962,114.72881 C 86.574772,114.12762 86.634362,112.5847 87.271952,112.24347 87.553432,112.09283 88.803592,111.96958 90.050082,111.96958 H 92.316432 V 113.55708 115.14458 H 89.954082 C 88.159272,115.14458 87.491842,115.04469 87.175962,114.72881 Z M 115.0706,113.55708 V 111.96958 H 117.43295 C 120.11189,111.96958 120.62685,112.24138 120.62685,113.65536 120.62685,114.97164 120.26736,115.14458 117.53122,115.14458 H 115.0706 Z M 115.0706,108.53 V 106.9425 H 117.53122 C 120.26892,106.9425 120.62685,107.11514 120.62685,108.43562 120.62685,109.74559 119.88249,110.1175 117.26068,110.1175 H 115.0706 Z M 87.077682,109.53541 C 86.903062,109.36079 86.760182,108.84882 86.760182,108.39771 86.760182,107.11805 87.133642,106.9425 89.855812,106.9425 H 92.316432 V 108.39771 109.85291 H 89.855812 C 88.294762,109.85291 87.279112,109.73684 87.077682,109.53541 Z M 87.077682,104.50833 C 86.903062,104.33371 86.760182,103.80468 86.760182,103.33271 86.760182,102.02274 87.504542,101.65083 90.126342,101.65083 H 92.316432 V 103.23833 104.82583 H 89.855812 C 88.294762,104.82583 87.279112,104.70976 87.077682,104.50833 Z M 115.0706,103.23833 V 101.65083 H 117.26068 C 119.88249,101.65083 120.62685,102.02274 120.62685,103.33271 120.62685,104.65319 120.26892,104.82583 117.53122,104.82583 H 115.0706 Z M 94.433102,97.436401 C 94.433102,95.641581 94.532982,94.974161 94.848872,94.658271 95.328672,94.178471 96.097542,94.123461 96.831742,94.516391 97.282382,94.757561 97.343512,95.089441 97.343512,97.294521 V 99.798751 H 95.888312 94.433102 Z M 99.460182,97.458511 C 99.460182,95.527341 99.544762,95.041721 99.944042,94.680381 100.59463,94.091601 101.4626,94.128251 102.10601,94.771671 102.55217,95.217831 102.63518,95.653611 102.63518,97.549791 V 99.798751 H 101.04768 99.460182 Z M 104.75185,97.294521 C 104.75185,95.089441 104.81298,94.757561 105.26362,94.516391 105.99782,94.123461 106.76669,94.178471 107.24649,94.658271 107.56238,94.974161 107.66226,95.641581 107.66226,97.436401 V 99.798751 H 106.20706 104.75185 Z M 109.77893,97.279541 C 109.77893,94.838481 109.79978,94.750821 110.45105,94.454081 110.90676,94.246451 111.35401,94.228831 111.84011,94.399381 112.5455,94.646851 112.55828,94.692381 112.63278,97.224831 L 112.70851,99.798751 H 111.24372 109.77893 Z"
       id="path304"
       inkscape:export-filename="dark.svg"
       inkscape:export-xdpi="96"
       inkscape:export-ydpi="96" /></g></svg>
